<svg width="16" height="16" viewBox="0 0 16 16" fill="none" xmlns="http://www.w3.org/2000/svg">
<path d="M6.71992 7.23999C6.75325 7.01999 6.82659 6.82666 6.91992 6.65999C7.01325 6.49333 7.14659 6.35333 7.31325 6.24666C7.47325 6.14666 7.67325 6.1 7.91992 6.09333C8.07325 6.1 8.21325 6.12666 8.33992 6.18C8.47325 6.24 8.59325 6.31999 8.68659 6.41999C8.77992 6.51999 8.85325 6.63999 8.91325 6.77333C8.97325 6.90666 8.99992 7.05333 9.00659 7.2H10.1999C10.1866 6.88666 10.1266 6.59999 10.0133 6.33999C9.89992 6.07999 9.74659 5.85333 9.54659 5.66666C9.34659 5.47999 9.10658 5.33333 8.82658 5.22666C8.54658 5.12 8.23992 5.07333 7.89992 5.07333C7.46659 5.07333 7.08658 5.14666 6.76658 5.29999C6.44658 5.45333 6.17992 5.65333 5.96659 5.91333C5.75325 6.17333 5.59325 6.47333 5.49325 6.81999C5.39325 7.16666 5.33325 7.52666 5.33325 7.91333V8.09333C5.33325 8.47999 5.38658 8.83999 5.48658 9.18666C5.58658 9.53333 5.74658 9.83333 5.95992 10.0867C6.17325 10.34 6.43992 10.5467 6.75992 10.6933C7.07992 10.84 7.45992 10.92 7.89325 10.92C8.20659 10.92 8.49992 10.8667 8.77325 10.7667C9.04658 10.6667 9.28659 10.5267 9.49325 10.3467C9.69992 10.1667 9.86658 9.95999 9.98658 9.71999C10.1066 9.47999 10.1799 9.22666 10.1866 8.95333H8.99325C8.98659 9.09333 8.95325 9.21999 8.89325 9.33999C8.83325 9.45999 8.75325 9.55999 8.65325 9.64666C8.55325 9.73333 8.43992 9.79999 8.30659 9.84666C8.17992 9.89333 8.04659 9.90666 7.90659 9.91333C7.66659 9.90666 7.46659 9.86 7.31325 9.76C7.14659 9.65333 7.01325 9.51333 6.91992 9.34666C6.82659 9.17999 6.75325 8.98 6.71992 8.76C6.68659 8.54 6.66659 8.31333 6.66659 8.09333V7.91333C6.66659 7.67999 6.68659 7.45999 6.71992 7.23999ZM7.99992 1.33333C4.31992 1.33333 1.33325 4.31999 1.33325 7.99999C1.33325 11.68 4.31992 14.6667 7.99992 14.6667C11.6799 14.6667 14.6666 11.68 14.6666 7.99999C14.6666 4.31999 11.6799 1.33333 7.99992 1.33333ZM7.99992 13.3333C5.05992 13.3333 2.66659 10.94 2.66659 7.99999C2.66659 5.05999 5.05992 2.66666 7.99992 2.66666C10.9399 2.66666 13.3333 5.05999 13.3333 7.99999C13.3333 10.94 10.9399 13.3333 7.99992 13.3333Z" fill="white" stroke="#121918" stroke-width="0.5"/>
</svg>
