<svg width="60" height="60" viewBox="0 0 60 60" fill="none" xmlns="http://www.w3.org/2000/svg">
<g clip-path="url(#clip0_3108_70)">
<g filter="url(#filter0_b_3108_70)">
<path d="M0.000120875 30.0001C-0.124879 13.5001 13.5001 -0.12494 30.0001 5.98398e-05C46.3751 5.98398e-05 60.0001 13.3751 60.0001 29.7501C60.1251 46.2501 46.6251 59.8751 30.5001 60.0001C13.5001 60.0001 0.125121 46.8751 0.000120875 30.0001ZM37.1251 8.50006C29.8751 5.37506 18.3751 7.37506 11.8751 16.1251C5.25012 24.7501 5.62512 36.6251 12.6251 44.8751C19.8751 53.3751 31.3751 54.3751 37.0001 51.5001C25.2501 49.5001 17.8751 42.0001 17.1251 31.6251C16.7501 26.5001 18.0001 21.8751 21.0001 17.6251C25.0001 12.1251 30.3751 9.25006 37.1251 8.50006ZM32.6251 42.7501C37.8751 45.8751 45.2501 44.1251 49.5001 39.2501C54.0001 34.0001 54.0001 26.2501 49.6251 21.0001C45.3751 15.8751 38.0001 14.2501 32.6251 17.2501C40.1251 20.5001 43.2501 24.5001 42.8751 30.6251C42.6251 36.2501 39.1251 40.5001 32.6251 42.7501ZM35.7501 30.1251C35.8751 27.0001 33.2501 24.1251 30.0001 24.1251C27.0001 24.1251 24.2501 26.7501 24.2501 29.8751C24.1251 33.0001 26.8751 35.7501 30.0001 35.7501C33.1251 35.7501 35.6251 33.2501 35.7501 30.1251Z" fill="url(#paint0_linear_3108_70)"/>
</g>
</g>
<defs>
<filter id="filter0_b_3108_70" x="-106.901" y="-106.901" width="273.802" height="273.801" filterUnits="userSpaceOnUse" color-interpolation-filters="sRGB">
<feFlood flood-opacity="0" result="BackgroundImageFix"/>
<feGaussianBlur in="BackgroundImageFix" stdDeviation="53.45"/>
<feComposite in2="SourceAlpha" operator="in" result="effect1_backgroundBlur_3108_70"/>
<feBlend mode="normal" in="SourceGraphic" in2="effect1_backgroundBlur_3108_70" result="shape"/>
</filter>
<linearGradient id="paint0_linear_3108_70" x1="30.0001" y1="-0.000793457" x2="30.0001" y2="60.0001" gradientUnits="userSpaceOnUse">
<stop stop-color="white" stop-opacity="0.2"/>
<stop offset="1" stop-color="white" stop-opacity="0.28"/>
</linearGradient>
<clipPath id="clip0_3108_70">
<rect width="60" height="60" fill="white"/>
</clipPath>
</defs>
</svg>
